<?xml version="1.0" standalone="no"?>
<!DOCTYPE svg PUBLIC "-//W3C//DTD SVG 20010904//EN"
 "http://www.w3.org/TR/2001/REC-SVG-20010904/DTD/svg10.dtd">
<svg version="1.0" xmlns="http://www.w3.org/2000/svg"
 width="197.000000pt" height="197.000000pt" viewBox="0 0 197.000000 197.000000"
 preserveAspectRatio="xMidYMid meet">
<metadata>
Created by potrace 1.14, written by Peter Selinger 2001-2017
</metadata>
<g transform="translate(0.000000,197.000000) scale(0.100000,-0.100000)"
fill="#000000" stroke="none">
<path d="M290 983 l0 -984 378 2 c397 1 470 7 602 50 189 60 341 209 374 364
4 17 9 41 12 55 9 45 6 184 -6 235 -35 156 -179 296 -340 330 -56 12 -55 16 8
49 103 53 156 112 199 223 23 59 27 83 27 183 0 96 -3 124 -22 170 -60 151
-190 244 -400 287 -60 12 -159 16 -454 18 l-378 3 0 -985z m776 764 c124 -36
200 -100 225 -189 41 -152 -18 -305 -143 -369 -80 -41 -145 -51 -380 -56
l-228 -4 0 321 0 322 238 -5 c163 -3 253 -10 288 -20z m14 -822 c152 -30 269
-106 313 -203 37 -85 29 -231 -18 -322 -54 -104 -185 -174 -360 -194 -41 -4
-340 -9 -447 -7 l-28 1 0 371 0 371 253 -5 c138 -3 268 -8 287 -12z"/>
</g>
</svg>
